<svg width="373" height="99" fill="none" xmlns="http://www.w3.org/2000/svg">
  <path d="M175.289 61.585c0 17.76-11.84 31.05-28.87 31.05-10.15 0-17.64-4.59-21.87-12.08l-.24 8.93c0 1.09-.48 1.7-1.57 1.7h-7a1.528 1.528 0 0 1-1.617-1.02c-.075-.219-.1-.45-.073-.68V7.745a1.53 1.53 0 0 1 1.005-1.614c.217-.075.447-.101.675-.076h7.61a1.522 1.522 0 0 1 1.617 1.013c.075.217.1.449.073.677v34.14c4.35-7 11.6-11.35 21.39-11.35 17 0 28.87 13.41 28.87 31.05Zm-10.63 0c0-12.45-8.46-21-20.18-21-11.72 0-19.69 8.55-19.69 21.12s8.1 20.9 19.69 20.9c11.59 0 20.18-8.46 20.18-21M242.829 33.675v55.81a1.534 1.534 0 0 1-.434 1.259 1.532 1.532 0 0 1-1.256.441h-7c-1.09 0-1.57-.61-1.57-1.7l-.24-8.93c-4.24 7.5-11.73 12.08-21.88 12.08-17 0-28.87-13.29-28.87-31s11.84-31 28.87-31c10.15 0 17.64 4.71 21.87 12.2l.24-9.06c0-1.09.48-1.69 1.57-1.69h7a1.522 1.522 0 0 1 1.69 1.69l.01-.1Zm-10.74 28.03c0-12.57-8.1-21.15-19.7-21.15s-20.17 8.58-20.17 21 8.45 21 20.17 21c11.72 0 19.7-8.29 19.7-20.85ZM305.349 54.695v34.79a1.538 1.538 0 0 1-1.021 1.623c-.217.076-.45.103-.679.077h-7.56c-1.08 0-1.57-.61-1.57-1.7v-32.76c0-9.91-5.74-16.17-14.8-16.17s-16.39 6.26-16.39 16.17v32.76c0 1.09-.49 1.7-1.57 1.7h-7.67a1.538 1.538 0 0 1-1.69-1.7v-55.81a1.535 1.535 0 0 1 1.014-1.613c.217-.076.448-.102.676-.077h7.13c1.21 0 1.69.48 1.69 1.81l.37 7.49c3.38-6 10.1-10.75 19.64-10.75 12.81 0 22.43 8.57 22.43 24.16ZM364.729 91.185h-8.09a2.34 2.34 0 0 1-2.18-1.13l-19.81-25.57-9.42 10.38v14.62a1.54 1.54 0 0 1-1.69 1.7h-7.62a1.538 1.538 0 0 1-1.69-1.7V7.745a1.535 1.535 0 0 1 1.014-1.613c.217-.076.448-.102.676-.077h7.62a1.532 1.532 0 0 1 1.613 1.015c.076.216.102.447.077.675v53.59l25.49-28.39a2.41 2.41 0 0 1 2.05-1h9.18c1.33 0 1.58 1 .73 1.93l-21.26 23.36 24.4 31.89c.85 1.09.36 2.06-1.09 2.06ZM104.489 33.265v32.21c0 15.62-12 27.39-28 27.39s-28.05-11.81-28.05-27.39v-32.21a1.12 1.12 0 0 1 1.21-1.21h8.58a1.14 1.14 0 0 1 1.25 1.26v30.74c.22 10.38 7.71 18.52 17 18.52s16.93-8.53 16.93-19v-30.31a1.131 1.131 0 0 1 1.25-1.21h8.58a1.143 1.143 0 0 1 1.193.76c.057.16.076.331.057.5" fill="#190079"/>
  <circle cx="19.474" cy="43.494" r="12.961" fill="url(#a)"/>
  <circle cx="19.474" cy="79.675" r="12.961" fill="url(#b)"/>
  <defs>
    <linearGradient id="a" x1="10.662" y1="34.43" x2="25.239" y2="56.455" gradientUnits="userSpaceOnUse">
      <stop stop-color="#6BFFE3"/>
      <stop offset=".417" stop-color="#03F7AD"/>
      <stop offset=".896" stop-color="#00CC85"/>
    </linearGradient>
    <linearGradient id="b" x1="10.662" y1="70.611" x2="25.239" y2="92.635" gradientUnits="userSpaceOnUse">
      <stop stop-color="#6BFFE3"/>
      <stop offset=".417" stop-color="#03F7AD"/>
      <stop offset=".896" stop-color="#00CC85"/>
    </linearGradient>
  </defs>
</svg>
